<?xml version="1.0" encoding="UTF-8" standalone="no"?>
<!DOCTYPE svg PUBLIC "-//W3C//DTD SVG 1.1//EN"
 "http://www.w3.org/Graphics/SVG/1.1/DTD/svg11.dtd">
<!-- Generated by graphviz version 2.40.1 (20161225.0304)
 -->
<!-- Title: dependencies Pages: 1 -->
<svg width="719pt" height="284pt"
 viewBox="0.00 0.00 719.00 284.00" xmlns="http://www.w3.org/2000/svg" xmlns:xlink="http://www.w3.org/1999/xlink">
<g id="graph0" class="graph" transform="scale(1 1) rotate(0) translate(4 280)">
<title>dependencies</title>
<polygon fill="#ffffff" stroke="transparent" points="-4,4 -4,-280 715,-280 715,4 -4,4"/>
<text text-anchor="start" x="334.5091" y="-42.4" font-family="sans-serif" font-weight="bold" font-size="14.00" fill="#000000">Legend</text>
<polygon fill="#ffffb3" stroke="transparent" points="121.5,-10 121.5,-30 141.5,-30 141.5,-10 121.5,-10"/>
<text text-anchor="start" x="145.129" y="-15.4" font-family="sans-serif" font-size="14.00" fill="#000000"> &#160;Declarations</text>
<polygon fill="#8dd3c7" stroke="transparent" points="234.5,-10 234.5,-30 254.5,-30 254.5,-10 234.5,-10"/>
<text text-anchor="start" x="258.2251" y="-15.4" font-family="sans-serif" font-size="14.00" fill="#000000"> &#160;Module</text>
<polygon fill="#80b1d3" stroke="transparent" points="320.5,-10 320.5,-30 340.5,-30 340.5,-10 320.5,-10"/>
<text text-anchor="start" x="344.2812" y="-15.4" font-family="sans-serif" font-size="14.00" fill="#000000"> &#160;Bootstrap</text>
<polygon fill="#fdb462" stroke="transparent" points="417.5,-10 417.5,-30 437.5,-30 437.5,-10 417.5,-10"/>
<text text-anchor="start" x="441.1732" y="-15.4" font-family="sans-serif" font-size="14.00" fill="#000000"> &#160;Providers</text>
<polygon fill="#fb8072" stroke="transparent" points="513.5,-10 513.5,-30 533.5,-30 533.5,-10 513.5,-10"/>
<text text-anchor="start" x="537.2258" y="-15.4" font-family="sans-serif" font-size="14.00" fill="#000000"> &#160;Exports</text>
<g id="clust1" class="cluster">
<title>cluster_ContactManageModule</title>
<polygon fill="none" stroke="#000000" stroke-dasharray="1,5" points="8,-70 8,-268 703,-268 703,-70 8,-70"/>
</g>
<g id="clust2" class="cluster">
<title>cluster_ContactManageModule_declarations</title>
<polygon fill="none" stroke="#000000" points="190,-78 190,-130 695,-130 695,-78 190,-78"/>
</g>
<g id="clust7" class="cluster">
<title>cluster_ContactManageModule_exports</title>
<polygon fill="none" stroke="#000000" points="98,-208 98,-260 612,-260 612,-208 98,-208"/>
</g>
<g id="clust9" class="cluster">
<title>cluster_ContactManageModule_providers</title>
<polygon fill="none" stroke="#000000" points="16,-78 16,-130 182,-130 182,-78 16,-78"/>
</g>
<!-- ContactAddComponent -->
<g id="node1" class="node">
<title>ContactAddComponent</title>
<polygon fill="#ffffb3" stroke="#000000" points="687.486,-122 538.514,-122 538.514,-86 687.486,-86 687.486,-122"/>
<text text-anchor="middle" x="613" y="-99.8" font-family="Times,serif" font-size="14.00" fill="#000000">ContactAddComponent</text>
</g>
<!-- ContactManageModule -->
<g id="node4" class="node">
<title>ContactManageModule</title>
<polygon fill="#8dd3c7" stroke="#000000" points="432.1853,-187 429.1853,-191 408.1853,-191 405.1853,-187 283.8147,-187 283.8147,-151 432.1853,-151 432.1853,-187"/>
<text text-anchor="middle" x="358" y="-164.8" font-family="Times,serif" font-size="14.00" fill="#000000">ContactManageModule</text>
</g>
<!-- ContactAddComponent&#45;&gt;ContactManageModule -->
<g id="edge1" class="edge">
<title>ContactAddComponent&#45;&gt;ContactManageModule</title>
<path fill="none" stroke="#000000" d="M571.375,-122.0225C571.375,-139.3734 571.375,-163 571.375,-163 571.375,-163 442.3287,-163 442.3287,-163"/>
<polygon fill="#000000" stroke="#000000" points="442.3287,-159.5001 432.3287,-163 442.3286,-166.5001 442.3287,-159.5001"/>
</g>
<!-- ContactEditComponent -->
<g id="node2" class="node">
<title>ContactEditComponent</title>
<polygon fill="#ffffb3" stroke="#000000" points="520.2134,-122 371.7866,-122 371.7866,-86 520.2134,-86 520.2134,-122"/>
<text text-anchor="middle" x="446" y="-99.8" font-family="Times,serif" font-size="14.00" fill="#000000">ContactEditComponent</text>
</g>
<!-- ContactEditComponent&#45;&gt;ContactManageModule -->
<g id="edge2" class="edge">
<title>ContactEditComponent&#45;&gt;ContactManageModule</title>
<path fill="none" stroke="#000000" d="M401.993,-122.1061C401.993,-122.1061 401.993,-140.991 401.993,-140.991"/>
<polygon fill="#000000" stroke="#000000" points="398.4931,-140.9909 401.993,-150.991 405.4931,-140.991 398.4931,-140.9909"/>
</g>
<!-- ContactFormComponent -->
<g id="node3" class="node">
<title>ContactFormComponent</title>
<polygon fill="#ffffb3" stroke="#000000" points="353.7133,-122 198.2867,-122 198.2867,-86 353.7133,-86 353.7133,-122"/>
<text text-anchor="middle" x="276" y="-99.8" font-family="Times,serif" font-size="14.00" fill="#000000">ContactFormComponent</text>
</g>
<!-- ContactFormComponent&#45;&gt;ContactManageModule -->
<g id="edge3" class="edge">
<title>ContactFormComponent&#45;&gt;ContactManageModule</title>
<path fill="none" stroke="#000000" d="M318.757,-122.1061C318.757,-122.1061 318.757,-140.991 318.757,-140.991"/>
<polygon fill="#000000" stroke="#000000" points="315.2571,-140.9909 318.757,-150.991 322.2571,-140.991 315.2571,-140.9909"/>
</g>
<!-- ContactAddComponent  -->
<g id="node5" class="node">
<title>ContactAddComponent </title>
<polygon fill="#fb8072" stroke="#000000" points="604.4868,-252 451.5132,-252 451.5132,-216 604.4868,-216 604.4868,-252"/>
<text text-anchor="middle" x="528" y="-229.8" font-family="Times,serif" font-size="14.00" fill="#000000">ContactAddComponent </text>
</g>
<!-- ContactManageModule&#45;&gt;ContactAddComponent  -->
<g id="edge4" class="edge">
<title>ContactManageModule&#45;&gt;ContactAddComponent </title>
<path fill="none" stroke="#000000" stroke-dasharray="5,2" d="M432.4185,-175C460.5625,-175 485.9318,-175 485.9318,-175 485.9318,-175 485.9318,-205.9775 485.9318,-205.9775"/>
<polygon fill="#000000" stroke="#000000" points="482.4319,-205.9774 485.9318,-215.9775 489.4319,-205.9775 482.4319,-205.9774"/>
</g>
<!-- ContactEditComponent  -->
<g id="node6" class="node">
<title>ContactEditComponent </title>
<polygon fill="#fb8072" stroke="#000000" points="433.7135,-252 282.2865,-252 282.2865,-216 433.7135,-216 433.7135,-252"/>
<text text-anchor="middle" x="358" y="-229.8" font-family="Times,serif" font-size="14.00" fill="#000000">ContactEditComponent </text>
</g>
<!-- ContactManageModule&#45;&gt;ContactEditComponent  -->
<g id="edge5" class="edge">
<title>ContactManageModule&#45;&gt;ContactEditComponent </title>
<path fill="none" stroke="#000000" stroke-dasharray="5,2" d="M358,-187.1061C358,-187.1061 358,-205.991 358,-205.991"/>
<polygon fill="#000000" stroke="#000000" points="354.5001,-205.9909 358,-215.991 361.5001,-205.991 354.5001,-205.9909"/>
</g>
<!-- ContactFormComponent  -->
<g id="node7" class="node">
<title>ContactFormComponent </title>
<polygon fill="#fb8072" stroke="#000000" points="264.2135,-252 105.7865,-252 105.7865,-216 264.2135,-216 264.2135,-252"/>
<text text-anchor="middle" x="185" y="-229.8" font-family="Times,serif" font-size="14.00" fill="#000000">ContactFormComponent </text>
</g>
<!-- ContactManageModule&#45;&gt;ContactFormComponent  -->
<g id="edge6" class="edge">
<title>ContactManageModule&#45;&gt;ContactFormComponent </title>
<path fill="none" stroke="#000000" stroke-dasharray="5,2" d="M283.6093,-175C256.0465,-175 231.375,-175 231.375,-175 231.375,-175 231.375,-205.9775 231.375,-205.9775"/>
<polygon fill="#000000" stroke="#000000" points="227.8751,-205.9774 231.375,-215.9775 234.8751,-205.9775 227.8751,-205.9774"/>
</g>
<!-- DatabaseService -->
<g id="node8" class="node">
<title>DatabaseService</title>
<ellipse fill="#fdb462" stroke="#000000" cx="99" cy="-104" rx="75.2559" ry="18"/>
<text text-anchor="middle" x="99" y="-99.8" font-family="Times,serif" font-size="14.00" fill="#000000">DatabaseService</text>
</g>
<!-- DatabaseService&#45;&gt;ContactManageModule -->
<g id="edge7" class="edge">
<title>DatabaseService&#45;&gt;ContactManageModule</title>
<path fill="none" stroke="#000000" d="M140.0106,-119.194C140.0106,-136.6752 140.0106,-163 140.0106,-163 140.0106,-163 273.8946,-163 273.8946,-163"/>
<polygon fill="#000000" stroke="#000000" points="273.8946,-166.5001 283.8946,-163 273.8945,-159.5001 273.8946,-166.5001"/>
</g>
</g>
</svg>
