<?xml version="1.0" encoding="UTF-8" standalone="no"?>
<!DOCTYPE svg PUBLIC "-//W3C//DTD SVG 1.1//EN"
 "http://www.w3.org/Graphics/SVG/1.1/DTD/svg11.dtd">
<!-- Generated by graphviz version 2.40.1 (20161225.0304)
 -->
<!-- Title: dependencies Pages: 1 -->
<svg width="504pt" height="284pt"
 viewBox="0.00 0.00 504.00 284.00" xmlns="http://www.w3.org/2000/svg" xmlns:xlink="http://www.w3.org/1999/xlink">
<g id="graph0" class="graph" transform="scale(1 1) rotate(0) translate(4 280)">
<title>dependencies</title>
<polygon fill="#ffffff" stroke="transparent" points="-4,4 -4,-280 500,-280 500,4 -4,4"/>
<text text-anchor="start" x="227.0091" y="-42.4" font-family="sans-serif" font-weight="bold" font-size="14.00" fill="#000000">Legend</text>
<polygon fill="#ffffb3" stroke="transparent" points="14,-10 14,-30 34,-30 34,-10 14,-10"/>
<text text-anchor="start" x="37.629" y="-15.4" font-family="sans-serif" font-size="14.00" fill="#000000"> &#160;Declarations</text>
<polygon fill="#8dd3c7" stroke="transparent" points="127,-10 127,-30 147,-30 147,-10 127,-10"/>
<text text-anchor="start" x="150.7251" y="-15.4" font-family="sans-serif" font-size="14.00" fill="#000000"> &#160;Module</text>
<polygon fill="#80b1d3" stroke="transparent" points="213,-10 213,-30 233,-30 233,-10 213,-10"/>
<text text-anchor="start" x="236.7812" y="-15.4" font-family="sans-serif" font-size="14.00" fill="#000000"> &#160;Bootstrap</text>
<polygon fill="#fdb462" stroke="transparent" points="310,-10 310,-30 330,-30 330,-10 310,-10"/>
<text text-anchor="start" x="333.6732" y="-15.4" font-family="sans-serif" font-size="14.00" fill="#000000"> &#160;Providers</text>
<polygon fill="#fb8072" stroke="transparent" points="406,-10 406,-30 426,-30 426,-10 406,-10"/>
<text text-anchor="start" x="429.7258" y="-15.4" font-family="sans-serif" font-size="14.00" fill="#000000"> &#160;Exports</text>
<g id="clust1" class="cluster">
<title>cluster_ContactListModule</title>
<polygon fill="none" stroke="#000000" stroke-dasharray="1,5" points="72,-70 72,-268 424,-268 424,-70 72,-70"/>
</g>
<g id="clust2" class="cluster">
<title>cluster_ContactListModule_declarations</title>
<polygon fill="none" stroke="#000000" points="254,-78 254,-130 416,-130 416,-78 254,-78"/>
</g>
<g id="clust5" class="cluster">
<title>cluster_ContactListModule_exports</title>
<polygon fill="none" stroke="#000000" points="165,-208 165,-260 331,-260 331,-208 165,-208"/>
</g>
<g id="clust7" class="cluster">
<title>cluster_ContactListModule_providers</title>
<polygon fill="none" stroke="#000000" points="80,-78 80,-130 246,-130 246,-78 80,-78"/>
</g>
<!-- ContactListComponent -->
<g id="node1" class="node">
<title>ContactListComponent</title>
<polygon fill="#ffffb3" stroke="#000000" points="408.1582,-122 261.8418,-122 261.8418,-86 408.1582,-86 408.1582,-122"/>
<text text-anchor="middle" x="335" y="-99.8" font-family="Times,serif" font-size="14.00" fill="#000000">ContactListComponent</text>
</g>
<!-- ContactListModule -->
<g id="node2" class="node">
<title>ContactListModule</title>
<polygon fill="#8dd3c7" stroke="#000000" points="310.3753,-187 307.3753,-191 286.3753,-191 283.3753,-187 185.6247,-187 185.6247,-151 310.3753,-151 310.3753,-187"/>
<text text-anchor="middle" x="248" y="-164.8" font-family="Times,serif" font-size="14.00" fill="#000000">ContactListModule</text>
</g>
<!-- ContactListComponent&#45;&gt;ContactListModule -->
<g id="edge1" class="edge">
<title>ContactListComponent&#45;&gt;ContactListModule</title>
<path fill="none" stroke="#000000" d="M286.0544,-122.1061C286.0544,-122.1061 286.0544,-140.991 286.0544,-140.991"/>
<polygon fill="#000000" stroke="#000000" points="282.5544,-140.9909 286.0544,-150.991 289.5544,-140.991 282.5544,-140.9909"/>
</g>
<!-- ContactListComponent  -->
<g id="node3" class="node">
<title>ContactListComponent </title>
<polygon fill="#fb8072" stroke="#000000" points="323.1579,-252 172.8421,-252 172.8421,-216 323.1579,-216 323.1579,-252"/>
<text text-anchor="middle" x="248" y="-229.8" font-family="Times,serif" font-size="14.00" fill="#000000">ContactListComponent </text>
</g>
<!-- ContactListModule&#45;&gt;ContactListComponent  -->
<g id="edge2" class="edge">
<title>ContactListModule&#45;&gt;ContactListComponent </title>
<path fill="none" stroke="#000000" stroke-dasharray="5,2" d="M248,-187.1061C248,-187.1061 248,-205.991 248,-205.991"/>
<polygon fill="#000000" stroke="#000000" points="244.5001,-205.9909 248,-215.991 251.5001,-205.991 244.5001,-205.9909"/>
</g>
<!-- DatabaseService -->
<g id="node4" class="node">
<title>DatabaseService</title>
<ellipse fill="#fdb462" stroke="#000000" cx="163" cy="-104" rx="75.2559" ry="18"/>
<text text-anchor="middle" x="163" y="-99.8" font-family="Times,serif" font-size="14.00" fill="#000000">DatabaseService</text>
</g>
<!-- DatabaseService&#45;&gt;ContactListModule -->
<g id="edge3" class="edge">
<title>DatabaseService&#45;&gt;ContactListModule</title>
<path fill="none" stroke="#000000" d="M211.9701,-117.7848C211.9701,-117.7848 211.9701,-140.5475 211.9701,-140.5475"/>
<polygon fill="#000000" stroke="#000000" points="208.4702,-140.5474 211.9701,-150.5475 215.4702,-140.5475 208.4702,-140.5474"/>
</g>
</g>
</svg>
