<?xml version="1.0" encoding="UTF-8" standalone="no"?>
<!DOCTYPE svg PUBLIC "-//W3C//DTD SVG 1.1//EN"
 "http://www.w3.org/Graphics/SVG/1.1/DTD/svg11.dtd">
<!-- Generated by graphviz version 2.40.1 (20161225.0304)
 -->
<!-- Title: dependencies Pages: 1 -->
<svg width="790pt" height="284pt"
 viewBox="0.00 0.00 790.00 284.00" xmlns="http://www.w3.org/2000/svg" xmlns:xlink="http://www.w3.org/1999/xlink">
<g id="graph0" class="graph" transform="scale(1 1) rotate(0) translate(4 280)">
<title>dependencies</title>
<polygon fill="#ffffff" stroke="transparent" points="-4,4 -4,-280 786,-280 786,4 -4,4"/>
<text text-anchor="start" x="370.0091" y="-42.4" font-family="sans-serif" font-weight="bold" font-size="14.00" fill="#000000">Legend</text>
<polygon fill="#ffffb3" stroke="transparent" points="157,-10 157,-30 177,-30 177,-10 157,-10"/>
<text text-anchor="start" x="180.629" y="-15.4" font-family="sans-serif" font-size="14.00" fill="#000000"> &#160;Declarations</text>
<polygon fill="#8dd3c7" stroke="transparent" points="270,-10 270,-30 290,-30 290,-10 270,-10"/>
<text text-anchor="start" x="293.7251" y="-15.4" font-family="sans-serif" font-size="14.00" fill="#000000"> &#160;Module</text>
<polygon fill="#80b1d3" stroke="transparent" points="356,-10 356,-30 376,-30 376,-10 356,-10"/>
<text text-anchor="start" x="379.7812" y="-15.4" font-family="sans-serif" font-size="14.00" fill="#000000"> &#160;Bootstrap</text>
<polygon fill="#fdb462" stroke="transparent" points="453,-10 453,-30 473,-30 473,-10 453,-10"/>
<text text-anchor="start" x="476.6732" y="-15.4" font-family="sans-serif" font-size="14.00" fill="#000000"> &#160;Providers</text>
<polygon fill="#fb8072" stroke="transparent" points="549,-10 549,-30 569,-30 569,-10 549,-10"/>
<text text-anchor="start" x="572.7258" y="-15.4" font-family="sans-serif" font-size="14.00" fill="#000000"> &#160;Exports</text>
<g id="clust1" class="cluster">
<title>cluster_AppModule</title>
<polygon fill="none" stroke="#000000" stroke-dasharray="1,5" points="8,-70 8,-268 774,-268 774,-70 8,-70"/>
</g>
<g id="clust2" class="cluster">
<title>cluster_AppModule_declarations</title>
<polygon fill="none" stroke="#000000" points="478,-78 478,-130 766,-130 766,-78 478,-78"/>
</g>
<g id="clust5" class="cluster">
<title>cluster_AppModule_imports</title>
<polygon fill="none" stroke="#000000" points="16,-78 16,-130 470,-130 470,-78 16,-78"/>
</g>
<g id="clust7" class="cluster">
<title>cluster_AppModule_bootstrap</title>
<polygon fill="none" stroke="#000000" points="330,-208 330,-260 466,-260 466,-208 330,-208"/>
</g>
<!-- DemoComponent -->
<g id="node1" class="node">
<title>DemoComponent</title>
<polygon fill="#ffffb3" stroke="#000000" points="757.5451,-122 642.4549,-122 642.4549,-86 757.5451,-86 757.5451,-122"/>
<text text-anchor="middle" x="700" y="-99.8" font-family="Times,serif" font-size="14.00" fill="#000000">DemoComponent</text>
</g>
<!-- AppModule -->
<g id="node3" class="node">
<title>AppModule</title>
<polygon fill="#8dd3c7" stroke="#000000" points="439.6571,-187 436.6571,-191 415.6571,-191 412.6571,-187 356.3429,-187 356.3429,-151 439.6571,-151 439.6571,-187"/>
<text text-anchor="middle" x="398" y="-164.8" font-family="Times,serif" font-size="14.00" fill="#000000">AppModule</text>
</g>
<!-- DemoComponent&#45;&gt;AppModule -->
<g id="edge1" class="edge">
<title>DemoComponent&#45;&gt;AppModule</title>
<path fill="none" stroke="#000000" d="M700,-122.2843C700,-143.3211 700,-175 700,-175 700,-175 449.6747,-175 449.6747,-175"/>
<polygon fill="#000000" stroke="#000000" points="449.6748,-171.5001 439.6747,-175 449.6747,-178.5001 449.6748,-171.5001"/>
</g>
<!-- DemoEditComponent -->
<g id="node2" class="node">
<title>DemoEditComponent</title>
<polygon fill="#ffffb3" stroke="#000000" points="624.3781,-122 485.6219,-122 485.6219,-86 624.3781,-86 624.3781,-122"/>
<text text-anchor="middle" x="555" y="-99.8" font-family="Times,serif" font-size="14.00" fill="#000000">DemoEditComponent</text>
</g>
<!-- DemoEditComponent&#45;&gt;AppModule -->
<g id="edge2" class="edge">
<title>DemoEditComponent&#45;&gt;AppModule</title>
<path fill="none" stroke="#000000" d="M555,-122.0225C555,-139.3734 555,-163 555,-163 555,-163 449.6609,-163 449.6609,-163"/>
<polygon fill="#000000" stroke="#000000" points="449.661,-159.5001 439.6609,-163 449.6609,-166.5001 449.661,-159.5001"/>
</g>
<!-- DemoComponent  -->
<g id="node7" class="node">
<title>DemoComponent </title>
<polygon fill="#80b1d3" stroke="#000000" points="457.5442,-252 338.4558,-252 338.4558,-216 457.5442,-216 457.5442,-252"/>
<text text-anchor="middle" x="398" y="-229.8" font-family="Times,serif" font-size="14.00" fill="#000000">DemoComponent </text>
</g>
<!-- AppModule&#45;&gt;DemoComponent  -->
<g id="edge6" class="edge">
<title>AppModule&#45;&gt;DemoComponent </title>
<path fill="none" stroke="#000000" stroke-dasharray="1,5" d="M398,-187.1061C398,-187.1061 398,-205.991 398,-205.991"/>
<polygon fill="#000000" stroke="#000000" points="394.5001,-205.9909 398,-215.991 401.5001,-205.991 394.5001,-205.9909"/>
</g>
<!-- AppRoutingModule -->
<g id="node4" class="node">
<title>AppRoutingModule</title>
<polygon fill="#8dd3c7" stroke="#000000" points="462.2744,-122 459.2744,-126 438.2744,-126 435.2744,-122 333.7256,-122 333.7256,-86 462.2744,-86 462.2744,-122"/>
<text text-anchor="middle" x="398" y="-99.8" font-family="Times,serif" font-size="14.00" fill="#000000">AppRoutingModule</text>
</g>
<!-- AppRoutingModule&#45;&gt;AppModule -->
<g id="edge3" class="edge">
<title>AppRoutingModule&#45;&gt;AppModule</title>
<path fill="none" stroke="#000000" d="M398,-122.1061C398,-122.1061 398,-140.991 398,-140.991"/>
<polygon fill="#000000" stroke="#000000" points="394.5001,-140.9909 398,-150.991 401.5001,-140.991 394.5001,-140.9909"/>
</g>
<!-- ContactListModule -->
<g id="node5" class="node">
<title>ContactListModule</title>
<polygon fill="#8dd3c7" stroke="#000000" points="315.3753,-122 312.3753,-126 291.3753,-126 288.3753,-122 190.6247,-122 190.6247,-86 315.3753,-86 315.3753,-122"/>
<text text-anchor="middle" x="253" y="-99.8" font-family="Times,serif" font-size="14.00" fill="#000000">ContactListModule</text>
</g>
<!-- ContactListModule&#45;&gt;AppModule -->
<g id="edge4" class="edge">
<title>ContactListModule&#45;&gt;AppModule</title>
<path fill="none" stroke="#000000" d="M253,-122.0225C253,-139.3734 253,-163 253,-163 253,-163 346.06,-163 346.06,-163"/>
<polygon fill="#000000" stroke="#000000" points="346.06,-166.5001 356.06,-163 346.06,-159.5001 346.06,-166.5001"/>
</g>
<!-- ContactManageModule -->
<g id="node6" class="node">
<title>ContactManageModule</title>
<polygon fill="#8dd3c7" stroke="#000000" points="172.1853,-122 169.1853,-126 148.1853,-126 145.1853,-122 23.8147,-122 23.8147,-86 172.1853,-86 172.1853,-122"/>
<text text-anchor="middle" x="98" y="-99.8" font-family="Times,serif" font-size="14.00" fill="#000000">ContactManageModule</text>
</g>
<!-- ContactManageModule&#45;&gt;AppModule -->
<g id="edge5" class="edge">
<title>ContactManageModule&#45;&gt;AppModule</title>
<path fill="none" stroke="#000000" d="M98,-122.2843C98,-143.3211 98,-175 98,-175 98,-175 346.2863,-175 346.2863,-175"/>
<polygon fill="#000000" stroke="#000000" points="346.2863,-178.5001 356.2863,-175 346.2863,-171.5001 346.2863,-178.5001"/>
</g>
</g>
</svg>
