<?xml version="1.0" encoding="UTF-8" standalone="no"?>
<!DOCTYPE svg PUBLIC "-//W3C//DTD SVG 1.1//EN"
 "http://www.w3.org/Graphics/SVG/1.1/DTD/svg11.dtd">
<!-- Generated by graphviz version 2.40.1 (20161225.0304)
 -->
<!-- Title: dependencies Pages: 1 -->
<svg width="1151pt" height="284pt"
 viewBox="0.00 0.00 1151.00 284.00" xmlns="http://www.w3.org/2000/svg" xmlns:xlink="http://www.w3.org/1999/xlink">
<g id="graph0" class="graph" transform="scale(1 1) rotate(0) translate(4 280)">
<title>dependencies</title>
<polygon fill="#ffffff" stroke="transparent" points="-4,4 -4,-280 1147,-280 1147,4 -4,4"/>
<text text-anchor="start" x="550.5091" y="-42.4" font-family="sans-serif" font-weight="bold" font-size="14.00" fill="#000000">Legend</text>
<polygon fill="#ffffb3" stroke="transparent" points="337.5,-10 337.5,-30 357.5,-30 357.5,-10 337.5,-10"/>
<text text-anchor="start" x="361.129" y="-15.4" font-family="sans-serif" font-size="14.00" fill="#000000"> &#160;Declarations</text>
<polygon fill="#8dd3c7" stroke="transparent" points="450.5,-10 450.5,-30 470.5,-30 470.5,-10 450.5,-10"/>
<text text-anchor="start" x="474.2251" y="-15.4" font-family="sans-serif" font-size="14.00" fill="#000000"> &#160;Module</text>
<polygon fill="#80b1d3" stroke="transparent" points="536.5,-10 536.5,-30 556.5,-30 556.5,-10 536.5,-10"/>
<text text-anchor="start" x="560.2812" y="-15.4" font-family="sans-serif" font-size="14.00" fill="#000000"> &#160;Bootstrap</text>
<polygon fill="#fdb462" stroke="transparent" points="633.5,-10 633.5,-30 653.5,-30 653.5,-10 633.5,-10"/>
<text text-anchor="start" x="657.1732" y="-15.4" font-family="sans-serif" font-size="14.00" fill="#000000"> &#160;Providers</text>
<polygon fill="#fb8072" stroke="transparent" points="729.5,-10 729.5,-30 749.5,-30 749.5,-10 729.5,-10"/>
<text text-anchor="start" x="753.2258" y="-15.4" font-family="sans-serif" font-size="14.00" fill="#000000"> &#160;Exports</text>
<g id="clust1" class="cluster">
<title>cluster_AppModule</title>
<polygon fill="none" stroke="#000000" stroke-dasharray="1,5" points="8,-70 8,-268 1135,-268 1135,-70 8,-70"/>
</g>
<g id="clust2" class="cluster">
<title>cluster_AppModule_declarations</title>
<polygon fill="none" stroke="#000000" points="168,-78 168,-130 1127,-130 1127,-78 168,-78"/>
</g>
<g id="clust9" class="cluster">
<title>cluster_AppModule_imports</title>
<polygon fill="none" stroke="#000000" points="16,-78 16,-130 160,-130 160,-78 16,-78"/>
</g>
<g id="clust11" class="cluster">
<title>cluster_AppModule_bootstrap</title>
<polygon fill="none" stroke="#000000" points="471,-208 471,-260 607,-260 607,-208 471,-208"/>
</g>
<!-- ContactAddComponent -->
<g id="node1" class="node">
<title>ContactAddComponent</title>
<polygon fill="#ffffb3" stroke="#000000" points="1119.486,-122 970.514,-122 970.514,-86 1119.486,-86 1119.486,-122"/>
<text text-anchor="middle" x="1045" y="-99.8" font-family="Times,serif" font-size="14.00" fill="#000000">ContactAddComponent</text>
</g>
<!-- AppModule -->
<g id="node7" class="node">
<title>AppModule</title>
<polygon fill="#8dd3c7" stroke="#000000" points="580.6571,-187 577.6571,-191 556.6571,-191 553.6571,-187 497.3429,-187 497.3429,-151 580.6571,-151 580.6571,-187"/>
<text text-anchor="middle" x="539" y="-164.8" font-family="Times,serif" font-size="14.00" fill="#000000">AppModule</text>
</g>
<!-- ContactAddComponent&#45;&gt;AppModule -->
<g id="edge1" class="edge">
<title>ContactAddComponent&#45;&gt;AppModule</title>
<path fill="none" stroke="#000000" d="M1045,-122.2921C1045,-144.2057 1045,-178 1045,-178 1045,-178 590.8386,-178 590.8386,-178"/>
<polygon fill="#000000" stroke="#000000" points="590.8386,-174.5001 580.8386,-178 590.8386,-181.5001 590.8386,-174.5001"/>
</g>
<!-- ContactEditComponent -->
<g id="node2" class="node">
<title>ContactEditComponent</title>
<polygon fill="#ffffb3" stroke="#000000" points="952.2134,-122 803.7866,-122 803.7866,-86 952.2134,-86 952.2134,-122"/>
<text text-anchor="middle" x="878" y="-99.8" font-family="Times,serif" font-size="14.00" fill="#000000">ContactEditComponent</text>
</g>
<!-- ContactEditComponent&#45;&gt;AppModule -->
<g id="edge2" class="edge">
<title>ContactEditComponent&#45;&gt;AppModule</title>
<path fill="none" stroke="#000000" d="M878,-122.1061C878,-141.3391 878,-169 878,-169 878,-169 590.9081,-169 590.9081,-169"/>
<polygon fill="#000000" stroke="#000000" points="590.9081,-165.5001 580.9081,-169 590.908,-172.5001 590.9081,-165.5001"/>
</g>
<!-- ContactFormComponent -->
<g id="node3" class="node">
<title>ContactFormComponent</title>
<polygon fill="#ffffb3" stroke="#000000" points="785.7133,-122 630.2867,-122 630.2867,-86 785.7133,-86 785.7133,-122"/>
<text text-anchor="middle" x="708" y="-99.8" font-family="Times,serif" font-size="14.00" fill="#000000">ContactFormComponent</text>
</g>
<!-- ContactFormComponent&#45;&gt;AppModule -->
<g id="edge3" class="edge">
<title>ContactFormComponent&#45;&gt;AppModule</title>
<path fill="none" stroke="#000000" d="M708,-122.027C708,-138.3976 708,-160 708,-160 708,-160 590.7753,-160 590.7753,-160"/>
<polygon fill="#000000" stroke="#000000" points="590.7753,-156.5001 580.7753,-160 590.7753,-163.5001 590.7753,-156.5001"/>
</g>
<!-- ContactListComponent -->
<g id="node4" class="node">
<title>ContactListComponent</title>
<polygon fill="#ffffb3" stroke="#000000" points="612.1582,-122 465.8418,-122 465.8418,-86 612.1582,-86 612.1582,-122"/>
<text text-anchor="middle" x="539" y="-99.8" font-family="Times,serif" font-size="14.00" fill="#000000">ContactListComponent</text>
</g>
<!-- ContactListComponent&#45;&gt;AppModule -->
<g id="edge4" class="edge">
<title>ContactListComponent&#45;&gt;AppModule</title>
<path fill="none" stroke="#000000" d="M539,-122.1061C539,-122.1061 539,-140.991 539,-140.991"/>
<polygon fill="#000000" stroke="#000000" points="535.5001,-140.9909 539,-150.991 542.5001,-140.991 535.5001,-140.9909"/>
</g>
<!-- DemoComponent -->
<g id="node5" class="node">
<title>DemoComponent</title>
<polygon fill="#ffffb3" stroke="#000000" points="447.5451,-122 332.4549,-122 332.4549,-86 447.5451,-86 447.5451,-122"/>
<text text-anchor="middle" x="390" y="-99.8" font-family="Times,serif" font-size="14.00" fill="#000000">DemoComponent</text>
</g>
<!-- DemoComponent&#45;&gt;AppModule -->
<g id="edge5" class="edge">
<title>DemoComponent&#45;&gt;AppModule</title>
<path fill="none" stroke="#000000" d="M390,-122.027C390,-138.3976 390,-160 390,-160 390,-160 487.0987,-160 487.0987,-160"/>
<polygon fill="#000000" stroke="#000000" points="487.0987,-163.5001 497.0987,-160 487.0986,-156.5001 487.0987,-163.5001"/>
</g>
<!-- DemoEditComponent -->
<g id="node6" class="node">
<title>DemoEditComponent</title>
<polygon fill="#ffffb3" stroke="#000000" points="314.3781,-122 175.6219,-122 175.6219,-86 314.3781,-86 314.3781,-122"/>
<text text-anchor="middle" x="245" y="-99.8" font-family="Times,serif" font-size="14.00" fill="#000000">DemoEditComponent</text>
</g>
<!-- DemoEditComponent&#45;&gt;AppModule -->
<g id="edge6" class="edge">
<title>DemoEditComponent&#45;&gt;AppModule</title>
<path fill="none" stroke="#000000" d="M245,-122.1061C245,-141.3391 245,-169 245,-169 245,-169 487.1892,-169 487.1892,-169"/>
<polygon fill="#000000" stroke="#000000" points="487.1892,-172.5001 497.1892,-169 487.1892,-165.5001 487.1892,-172.5001"/>
</g>
<!-- DemoComponent  -->
<g id="node9" class="node">
<title>DemoComponent </title>
<polygon fill="#80b1d3" stroke="#000000" points="598.5442,-252 479.4558,-252 479.4558,-216 598.5442,-216 598.5442,-252"/>
<text text-anchor="middle" x="539" y="-229.8" font-family="Times,serif" font-size="14.00" fill="#000000">DemoComponent </text>
</g>
<!-- AppModule&#45;&gt;DemoComponent  -->
<g id="edge8" class="edge">
<title>AppModule&#45;&gt;DemoComponent </title>
<path fill="none" stroke="#000000" stroke-dasharray="1,5" d="M539,-187.1061C539,-187.1061 539,-205.991 539,-205.991"/>
<polygon fill="#000000" stroke="#000000" points="535.5001,-205.9909 539,-215.991 542.5001,-205.991 535.5001,-205.9909"/>
</g>
<!-- AppRoutingModule -->
<g id="node8" class="node">
<title>AppRoutingModule</title>
<polygon fill="#8dd3c7" stroke="#000000" points="152.2744,-122 149.2744,-126 128.2744,-126 125.2744,-122 23.7256,-122 23.7256,-86 152.2744,-86 152.2744,-122"/>
<text text-anchor="middle" x="88" y="-99.8" font-family="Times,serif" font-size="14.00" fill="#000000">AppRoutingModule</text>
</g>
<!-- AppRoutingModule&#45;&gt;AppModule -->
<g id="edge7" class="edge">
<title>AppRoutingModule&#45;&gt;AppModule</title>
<path fill="none" stroke="#000000" d="M88,-122.2921C88,-144.2057 88,-178 88,-178 88,-178 486.976,-178 486.976,-178"/>
<polygon fill="#000000" stroke="#000000" points="486.976,-181.5001 496.976,-178 486.976,-174.5001 486.976,-181.5001"/>
</g>
</g>
</svg>
