<?xml version="1.0" encoding="UTF-8" standalone="no"?>
<!DOCTYPE svg PUBLIC "-//W3C//DTD SVG 1.1//EN"
 "http://www.w3.org/Graphics/SVG/1.1/DTD/svg11.dtd">
<!-- Generated by graphviz version 2.40.1 (20161225.0304)
 -->
<!-- Title: dependencies Pages: 1 -->
<svg width="1691pt" height="284pt"
 viewBox="0.00 0.00 1691.00 284.00" xmlns="http://www.w3.org/2000/svg" xmlns:xlink="http://www.w3.org/1999/xlink">
<g id="graph0" class="graph" transform="scale(1 1) rotate(0) translate(4 280)">
<title>dependencies</title>
<polygon fill="#ffffff" stroke="transparent" points="-4,4 -4,-280 1687,-280 1687,4 -4,4"/>
<text text-anchor="start" x="820.5091" y="-42.4" font-family="sans-serif" font-weight="bold" font-size="14.00" fill="#000000">Legend</text>
<polygon fill="#ffffb3" stroke="transparent" points="607.5,-10 607.5,-30 627.5,-30 627.5,-10 607.5,-10"/>
<text text-anchor="start" x="631.129" y="-15.4" font-family="sans-serif" font-size="14.00" fill="#000000"> &#160;Declarations</text>
<polygon fill="#8dd3c7" stroke="transparent" points="720.5,-10 720.5,-30 740.5,-30 740.5,-10 720.5,-10"/>
<text text-anchor="start" x="744.2251" y="-15.4" font-family="sans-serif" font-size="14.00" fill="#000000"> &#160;Module</text>
<polygon fill="#80b1d3" stroke="transparent" points="806.5,-10 806.5,-30 826.5,-30 826.5,-10 806.5,-10"/>
<text text-anchor="start" x="830.2812" y="-15.4" font-family="sans-serif" font-size="14.00" fill="#000000"> &#160;Bootstrap</text>
<polygon fill="#fdb462" stroke="transparent" points="903.5,-10 903.5,-30 923.5,-30 923.5,-10 903.5,-10"/>
<text text-anchor="start" x="927.1732" y="-15.4" font-family="sans-serif" font-size="14.00" fill="#000000"> &#160;Providers</text>
<polygon fill="#fb8072" stroke="transparent" points="999.5,-10 999.5,-30 1019.5,-30 1019.5,-10 999.5,-10"/>
<text text-anchor="start" x="1023.2258" y="-15.4" font-family="sans-serif" font-size="14.00" fill="#000000"> &#160;Exports</text>
<g id="clust1" class="cluster">
<title>cluster_AppModule</title>
<polygon fill="none" stroke="#000000" stroke-dasharray="1,5" points="8,-70 8,-268 1136,-268 1136,-70 8,-70"/>
</g>
<g id="clust2" class="cluster">
<title>cluster_AppModule_declarations</title>
<polygon fill="none" stroke="#000000" points="168,-78 168,-130 1128,-130 1128,-78 168,-78"/>
</g>
<g id="clust9" class="cluster">
<title>cluster_AppModule_imports</title>
<polygon fill="none" stroke="#000000" points="16,-78 16,-130 160,-130 160,-78 16,-78"/>
</g>
<g id="clust11" class="cluster">
<title>cluster_AppModule_bootstrap</title>
<polygon fill="none" stroke="#000000" points="476,-208 476,-260 612,-260 612,-208 476,-208"/>
</g>
<g id="clust19" class="cluster">
<title>cluster_ContactManageModule</title>
<polygon fill="none" stroke="#000000" stroke-dasharray="1,5" points="1144,-70 1144,-268 1675,-268 1675,-70 1144,-70"/>
</g>
<g id="clust25" class="cluster">
<title>cluster_ContactManageModule_exports</title>
<polygon fill="none" stroke="#000000" points="1152,-208 1152,-260 1667,-260 1667,-208 1152,-208"/>
</g>
<g id="clust27" class="cluster">
<title>cluster_ContactManageModule_providers</title>
<polygon fill="none" stroke="#000000" points="1152,-78 1152,-130 1318,-130 1318,-78 1152,-78"/>
</g>
<!-- ContactAddComponent -->
<g id="node1" class="node">
<title>ContactAddComponent</title>
<polygon fill="#ffffb3" stroke="#000000" points="780.486,-122 631.514,-122 631.514,-86 780.486,-86 780.486,-122"/>
<text text-anchor="middle" x="706" y="-99.8" font-family="Times,serif" font-size="14.00" fill="#000000">ContactAddComponent</text>
</g>
<!-- AppModule -->
<g id="node7" class="node">
<title>AppModule</title>
<polygon fill="#8dd3c7" stroke="#000000" points="585.6571,-187 582.6571,-191 561.6571,-191 558.6571,-187 502.3429,-187 502.3429,-151 585.6571,-151 585.6571,-187"/>
<text text-anchor="middle" x="544" y="-164.8" font-family="Times,serif" font-size="14.00" fill="#000000">AppModule</text>
</g>
<!-- ContactAddComponent&#45;&gt;AppModule -->
<g id="edge1" class="edge">
<title>ContactAddComponent&#45;&gt;AppModule</title>
<path fill="none" stroke="#000000" d="M681.169,-122.2228C681.169,-142.3652 681.169,-172 681.169,-172 681.169,-172 595.9006,-172 595.9006,-172"/>
<polygon fill="#000000" stroke="#000000" points="595.9006,-168.5001 585.9006,-172 595.9005,-175.5001 595.9006,-168.5001"/>
</g>
<!-- ContactManageModule -->
<g id="node10" class="node">
<title>ContactManageModule</title>
<polygon fill="#8dd3c7" stroke="#000000" points="1309.1853,-187 1306.1853,-191 1285.1853,-191 1282.1853,-187 1160.8147,-187 1160.8147,-151 1309.1853,-151 1309.1853,-187"/>
<text text-anchor="middle" x="1235" y="-164.8" font-family="Times,serif" font-size="14.00" fill="#000000">ContactManageModule</text>
</g>
<!-- ContactAddComponent&#45;&gt;ContactManageModule -->
<g id="edge9" class="edge">
<title>ContactAddComponent&#45;&gt;ContactManageModule</title>
<path fill="none" stroke="#000000" d="M730.831,-122.2222C730.831,-140.8285 730.831,-167 730.831,-167 730.831,-167 1150.879,-167 1150.879,-167"/>
<polygon fill="#000000" stroke="#000000" points="1150.8791,-170.5001 1160.879,-167 1150.879,-163.5001 1150.8791,-170.5001"/>
</g>
<!-- ContactEditComponent -->
<g id="node2" class="node">
<title>ContactEditComponent</title>
<polygon fill="#ffffb3" stroke="#000000" points="1120.2134,-122 971.7866,-122 971.7866,-86 1120.2134,-86 1120.2134,-122"/>
<text text-anchor="middle" x="1046" y="-99.8" font-family="Times,serif" font-size="14.00" fill="#000000">ContactEditComponent</text>
</g>
<!-- ContactEditComponent&#45;&gt;AppModule -->
<g id="edge2" class="edge">
<title>ContactEditComponent&#45;&gt;AppModule</title>
<path fill="none" stroke="#000000" d="M1021.2978,-122.0908C1021.2978,-145.1328 1021.2978,-182 1021.2978,-182 1021.2978,-182 595.9387,-182 595.9387,-182"/>
<polygon fill="#000000" stroke="#000000" points="595.9387,-178.5001 585.9387,-182 595.9386,-185.5001 595.9387,-178.5001"/>
</g>
<!-- ContactEditComponent&#45;&gt;ContactManageModule -->
<g id="edge10" class="edge">
<title>ContactEditComponent&#45;&gt;ContactManageModule</title>
<path fill="none" stroke="#000000" d="M1070.7022,-122.2396C1070.7022,-137.5706 1070.7022,-157 1070.7022,-157 1070.7022,-157 1150.5425,-157 1150.5425,-157"/>
<polygon fill="#000000" stroke="#000000" points="1150.5426,-160.5001 1160.5425,-157 1150.5425,-153.5001 1150.5426,-160.5001"/>
</g>
<!-- ContactFormComponent -->
<g id="node3" class="node">
<title>ContactFormComponent</title>
<polygon fill="#ffffb3" stroke="#000000" points="953.7133,-122 798.2867,-122 798.2867,-86 953.7133,-86 953.7133,-122"/>
<text text-anchor="middle" x="876" y="-99.8" font-family="Times,serif" font-size="14.00" fill="#000000">ContactFormComponent</text>
</g>
<!-- ContactFormComponent&#45;&gt;AppModule -->
<g id="edge3" class="edge">
<title>ContactFormComponent&#45;&gt;AppModule</title>
<path fill="none" stroke="#000000" d="M850.1311,-122.0449C850.1311,-143.6623 850.1311,-177 850.1311,-177 850.1311,-177 595.9243,-177 595.9243,-177"/>
<polygon fill="#000000" stroke="#000000" points="595.9244,-173.5001 585.9243,-177 595.9243,-180.5001 595.9244,-173.5001"/>
</g>
<!-- ContactFormComponent&#45;&gt;ContactManageModule -->
<g id="edge11" class="edge">
<title>ContactFormComponent&#45;&gt;ContactManageModule</title>
<path fill="none" stroke="#000000" d="M901.8689,-122.0336C901.8689,-139.0597 901.8689,-162 901.8689,-162 901.8689,-162 1150.6535,-162 1150.6535,-162"/>
<polygon fill="#000000" stroke="#000000" points="1150.6535,-165.5001 1160.6535,-162 1150.6535,-158.5001 1150.6535,-165.5001"/>
</g>
<!-- ContactListComponent -->
<g id="node4" class="node">
<title>ContactListComponent</title>
<polygon fill="#ffffb3" stroke="#000000" points="456.1582,-122 309.8418,-122 309.8418,-86 456.1582,-86 456.1582,-122"/>
<text text-anchor="middle" x="383" y="-99.8" font-family="Times,serif" font-size="14.00" fill="#000000">ContactListComponent</text>
</g>
<!-- ContactListComponent&#45;&gt;AppModule -->
<g id="edge4" class="edge">
<title>ContactListComponent&#45;&gt;AppModule</title>
<path fill="none" stroke="#000000" d="M383,-122.027C383,-138.3976 383,-160 383,-160 383,-160 492.1194,-160 492.1194,-160"/>
<polygon fill="#000000" stroke="#000000" points="492.1195,-163.5001 502.1194,-160 492.1194,-156.5001 492.1195,-163.5001"/>
</g>
<!-- DemoComponent -->
<g id="node5" class="node">
<title>DemoComponent</title>
<polygon fill="#ffffb3" stroke="#000000" points="291.5451,-122 176.4549,-122 176.4549,-86 291.5451,-86 291.5451,-122"/>
<text text-anchor="middle" x="234" y="-99.8" font-family="Times,serif" font-size="14.00" fill="#000000">DemoComponent</text>
</g>
<!-- DemoComponent&#45;&gt;AppModule -->
<g id="edge5" class="edge">
<title>DemoComponent&#45;&gt;AppModule</title>
<path fill="none" stroke="#000000" d="M234,-122.1061C234,-141.3391 234,-169 234,-169 234,-169 492.192,-169 492.192,-169"/>
<polygon fill="#000000" stroke="#000000" points="492.1921,-172.5001 502.192,-169 492.192,-165.5001 492.1921,-172.5001"/>
</g>
<!-- DemoEditComponent -->
<g id="node6" class="node">
<title>DemoEditComponent</title>
<polygon fill="#ffffb3" stroke="#000000" points="613.3781,-122 474.6219,-122 474.6219,-86 613.3781,-86 613.3781,-122"/>
<text text-anchor="middle" x="544" y="-99.8" font-family="Times,serif" font-size="14.00" fill="#000000">DemoEditComponent</text>
</g>
<!-- DemoEditComponent&#45;&gt;AppModule -->
<g id="edge6" class="edge">
<title>DemoEditComponent&#45;&gt;AppModule</title>
<path fill="none" stroke="#000000" d="M544,-122.1061C544,-122.1061 544,-140.991 544,-140.991"/>
<polygon fill="#000000" stroke="#000000" points="540.5001,-140.9909 544,-150.991 547.5001,-140.991 540.5001,-140.9909"/>
</g>
<!-- DemoComponent  -->
<g id="node9" class="node">
<title>DemoComponent </title>
<polygon fill="#80b1d3" stroke="#000000" points="603.5442,-252 484.4558,-252 484.4558,-216 603.5442,-216 603.5442,-252"/>
<text text-anchor="middle" x="544" y="-229.8" font-family="Times,serif" font-size="14.00" fill="#000000">DemoComponent </text>
</g>
<!-- AppModule&#45;&gt;DemoComponent  -->
<g id="edge8" class="edge">
<title>AppModule&#45;&gt;DemoComponent </title>
<path fill="none" stroke="#000000" stroke-dasharray="1,5" d="M544,-187.1061C544,-187.1061 544,-205.991 544,-205.991"/>
<polygon fill="#000000" stroke="#000000" points="540.5001,-205.9909 544,-215.991 547.5001,-205.991 540.5001,-205.9909"/>
</g>
<!-- AppRoutingModule -->
<g id="node8" class="node">
<title>AppRoutingModule</title>
<polygon fill="#8dd3c7" stroke="#000000" points="152.2744,-122 149.2744,-126 128.2744,-126 125.2744,-122 23.7256,-122 23.7256,-86 152.2744,-86 152.2744,-122"/>
<text text-anchor="middle" x="88" y="-99.8" font-family="Times,serif" font-size="14.00" fill="#000000">AppRoutingModule</text>
</g>
<!-- AppRoutingModule&#45;&gt;AppModule -->
<g id="edge7" class="edge">
<title>AppRoutingModule&#45;&gt;AppModule</title>
<path fill="none" stroke="#000000" d="M88,-122.2921C88,-144.2057 88,-178 88,-178 88,-178 492.3242,-178 492.3242,-178"/>
<polygon fill="#000000" stroke="#000000" points="492.3242,-181.5001 502.3242,-178 492.3242,-174.5001 492.3242,-181.5001"/>
</g>
<!-- ContactAddComponent  -->
<g id="node11" class="node">
<title>ContactAddComponent </title>
<polygon fill="#fb8072" stroke="#000000" points="1312.4868,-252 1159.5132,-252 1159.5132,-216 1312.4868,-216 1312.4868,-252"/>
<text text-anchor="middle" x="1236" y="-229.8" font-family="Times,serif" font-size="14.00" fill="#000000">ContactAddComponent </text>
</g>
<!-- ContactManageModule&#45;&gt;ContactAddComponent  -->
<g id="edge12" class="edge">
<title>ContactManageModule&#45;&gt;ContactAddComponent </title>
<path fill="none" stroke="#000000" stroke-dasharray="5,2" d="M1235,-187.1061C1235,-187.1061 1235,-205.991 1235,-205.991"/>
<polygon fill="#000000" stroke="#000000" points="1231.5001,-205.9909 1235,-215.991 1238.5001,-205.991 1231.5001,-205.9909"/>
</g>
<!-- ContactEditComponent  -->
<g id="node12" class="node">
<title>ContactEditComponent </title>
<polygon fill="#fb8072" stroke="#000000" points="1658.7135,-252 1507.2865,-252 1507.2865,-216 1658.7135,-216 1658.7135,-252"/>
<text text-anchor="middle" x="1583" y="-229.8" font-family="Times,serif" font-size="14.00" fill="#000000">ContactEditComponent </text>
</g>
<!-- ContactManageModule&#45;&gt;ContactEditComponent  -->
<g id="edge13" class="edge">
<title>ContactManageModule&#45;&gt;ContactEditComponent </title>
<path fill="none" stroke="#000000" stroke-dasharray="5,2" d="M1309.2279,-163C1411.4317,-163 1583,-163 1583,-163 1583,-163 1583,-205.7157 1583,-205.7157"/>
<polygon fill="#000000" stroke="#000000" points="1579.5001,-205.7157 1583,-215.7157 1586.5001,-205.7158 1579.5001,-205.7157"/>
</g>
<!-- ContactFormComponent  -->
<g id="node13" class="node">
<title>ContactFormComponent </title>
<polygon fill="#fb8072" stroke="#000000" points="1489.2135,-252 1330.7865,-252 1330.7865,-216 1489.2135,-216 1489.2135,-252"/>
<text text-anchor="middle" x="1410" y="-229.8" font-family="Times,serif" font-size="14.00" fill="#000000">ContactFormComponent </text>
</g>
<!-- ContactManageModule&#45;&gt;ContactFormComponent  -->
<g id="edge14" class="edge">
<title>ContactManageModule&#45;&gt;ContactFormComponent </title>
<path fill="none" stroke="#000000" stroke-dasharray="5,2" d="M1309.2158,-175C1356.912,-175 1410,-175 1410,-175 1410,-175 1410,-205.9775 1410,-205.9775"/>
<polygon fill="#000000" stroke="#000000" points="1406.5001,-205.9774 1410,-215.9775 1413.5001,-205.9775 1406.5001,-205.9774"/>
</g>
<!-- DatabaseService -->
<g id="node14" class="node">
<title>DatabaseService</title>
<ellipse fill="#fdb462" stroke="#000000" cx="1235" cy="-104" rx="75.2559" ry="18"/>
<text text-anchor="middle" x="1235" y="-99.8" font-family="Times,serif" font-size="14.00" fill="#000000">DatabaseService</text>
</g>
<!-- DatabaseService&#45;&gt;ContactManageModule -->
<g id="edge15" class="edge">
<title>DatabaseService&#45;&gt;ContactManageModule</title>
<path fill="none" stroke="#000000" d="M1235,-122.1061C1235,-122.1061 1235,-140.991 1235,-140.991"/>
<polygon fill="#000000" stroke="#000000" points="1231.5001,-140.9909 1235,-150.991 1238.5001,-140.991 1231.5001,-140.9909"/>
</g>
</g>
</svg>
